<svg xmlns="http://www.w3.org/2000/svg" viewBox="0 0 256 256" role="img" aria-label="SwiftMac icon">
  <defs>
    <linearGradient id="bg" x1="0" y1="0" x2="1" y2="1">
      <stop offset="0%" stop-color="#0f766e"/>
      <stop offset="100%" stop-color="#1d4ed8"/>
    </linearGradient>
  </defs>
  <rect width="256" height="256" rx="56" fill="url(#bg)"/>
  <path d="M84 76h88c7.7 0 14 6.3 14 14v44c0 25.4-20.6 46-46 46h-24c-25.4 0-46-20.6-46-46V90c0-7.7 6.3-14 14-14z" fill="#f8fafc" opacity="0.95"/>
  <path d="M96 88h64a14 14 0 0 1 14 14v8H82v-8a14 14 0 0 1 14-14z" fill="#cbd5e1"/>
  <path d="M160 54l18 18" stroke="#f8fafc" stroke-width="14" stroke-linecap="round"/>
  <path d="M146 68l32-32" stroke="#f8fafc" stroke-width="14" stroke-linecap="round"/>
  <path d="M102 130h52" stroke="#1e293b" stroke-width="12" stroke-linecap="round" opacity="0.75"/>
  <path d="M102 154h34" stroke="#1e293b" stroke-width="12" stroke-linecap="round" opacity="0.55"/>
  <circle cx="176" cy="176" r="24" fill="#22c55e"/>
  <path d="M165 176l7 7 15-16" stroke="#f8fafc" stroke-width="8" stroke-linecap="round" stroke-linejoin="round" fill="none"/>
</svg>